<svg version="1.2" baseProfile="tiny" xmlns="http://www.w3.org/2000/svg" viewBox="0 0 15.6 9" width="20" height="10"><switch><g><path fill="#00F" d="M3.9 2h8.7l1.8-2H0l3.6 4h2.1z"/><path fill="red" d="M7.2 8L3.6 4H2.2l4.6 5 1.7-1.9-.3-.3z"/><path fill="#00F" d="M8.2 6.8L5.7 4H3.6l3.6 4z"/><path fill="#F0F" d="M8.2 6.8L5.7 4H3.6l3.6 4z"/><path fill="#0F0" d="M15.6 2h-3l-1.8 2h.4L8.5 7.1l1.3 1.4z"/><path fill="#00F" d="M5.7 4h5.1l1.8-2H3.9z"/><path fill="#0FF" d="M5.7 4h5.1l1.8-2H3.9z"/><path fill="red" d="M10.8 4L8.2 6.8l.3.3L11.2 4z"/><path fill="#FF0" d="M10.8 4L8.2 6.8l.3.3L11.2 4z"/><path fill="#00F" d="M8.2 6.8L10.8 4H5.7z"/><path fill="red" d="M8.2 6.8L10.8 4H5.7z"/><path fill="#FFF" d="M8.2 6.8L10.8 4H5.7z"/></g></switch></svg>