<?xml version="1.0" encoding="utf-8"?>
<!-- Generator: Adobe Illustrator 21.0.0, SVG Export Plug-In . SVG Version: 6.00 Build 0)  -->
<svg version="1.1" id="图层_1" xmlns="http://www.w3.org/2000/svg" xmlns:xlink="http://www.w3.org/1999/xlink" x="0px" y="0px"
	 viewBox="0 0 15.6 9" style="enable-background:new 0 0 15.6 9;" xml:space="preserve">
<style type="text/css">
	.st0{fill:#0000FF;}
	.st1{fill:#FF0000;}
	.st2{fill:#00FF00;}
</style>
<g>
	<polygon class="st0" points="3.9,2 12.6,2 14.4,0 0,0 3.6,4 5.7,4 	"/>
	<polygon class="st1" points="7.2,8 3.6,4 2.2,4 6.8,9 8.5,7.1 8.2,6.8 	"/>
	<polygon class="st0" points="8.2,6.8 5.7,4 3.6,4 7.2,8 	"/>
	<polygon class="st2" points="15.6,2 12.6,2 10.8,4 11.2,4 8.5,7.1 9.8,8.5 	"/>
	<polygon class="st0" points="5.7,4 10.8,4 12.6,2 3.9,2 	"/>
	<polygon class="st1" points="10.8,4 8.2,6.8 8.5,7.1 11.2,4 	"/>
	<polygon class="st0" points="8.2,6.8 10.8,4 5.7,4 	"/>
	<polygon class="st1" points="8.2,6.8 10.8,4 5.7,4 	"/>
	<polygon points="12.6,2 3.9,2 5.7,4 3.6,4 7.2,8 8.2,6.8 8.5,7.1 11.2,4 10.8,4 	"/>
</g>
</svg>
