<?xml version="1.0" encoding="utf-8"?>
<!-- Generator: Adobe Illustrator 21.0.0, SVG Export Plug-In . SVG Version: 6.00 Build 0)  -->
<svg version="1.1" id="图层_1" xmlns="http://www.w3.org/2000/svg" xmlns:xlink="http://www.w3.org/1999/xlink" x="0px" y="0px"
	 viewBox="0 0 15.6 9" style="enable-background:new 0 0 15.6 9;" xml:space="preserve">
<style type="text/css">
	.st0{fill:#0000FF;}
	.st1{fill:#FF0000;}
	.st2{fill:#00FF00;}
</style>
<g>
	<polygon class="st0" points="3.9,7 12.6,7 14.4,9 0,9 3.6,5 5.7,5 	"/>
	<polygon class="st1" points="7.2,1 3.6,5 2.2,5 6.8,0 8.5,1.9 8.2,2.2 	"/>
	<polygon class="st0" points="8.2,2.2 5.7,5 3.6,5 7.2,1 	"/>
	<polygon class="st2" points="15.6,7 12.6,7 10.8,5 11.2,5 8.5,1.9 9.8,0.5 	"/>
	<polygon class="st0" points="5.7,5 10.8,5 12.6,7 3.9,7 	"/>
	<polygon class="st1" points="10.8,5 8.2,2.2 8.5,1.9 11.2,5 	"/>
	<polygon class="st0" points="8.2,2.2 10.8,5 5.7,5 	"/>
	<polygon class="st1" points="8.2,2.2 10.8,5 5.7,5 	"/>
	<polygon points="12.6,7 3.9,7 5.7,5 3.6,5 7.2,1 8.2,2.2 8.5,1.9 11.2,5 10.8,5 	"/>
</g>
</svg>
